<?xml version="1.0" standalone="no"?>
<!DOCTYPE svg PUBLIC "-//W3C//DTD SVG 20010904//EN"
 "http://www.w3.org/TR/2001/REC-SVG-20010904/DTD/svg10.dtd">
<svg version="1.0" xmlns="http://www.w3.org/2000/svg"
 width="200.000000pt" height="200.000000pt" viewBox="0 0 200.000000 200.000000"
 preserveAspectRatio="xMidYMid meet">
<metadata>
Created by potrace 1.14, written by Peter Selinger 2001-2017
</metadata>
<g transform="translate(0.000000,200.000000) scale(0.100000,-0.100000)"
fill="#000000" stroke="none">
<path d="M1253 1721 c-43 -67 -127 -196 -187 -288 l-108 -166 -212 8 c-116 4
-237 10 -269 14 l-57 6 45 57 c87 111 228 199 372 233 54 13 99 16 175 13 57
-3 110 -8 118 -12 10 -4 23 6 39 31 21 32 21 37 7 45 -9 5 -16 18 -16 28 0 29
-20 35 -36 11 -21 -30 -58 -27 -82 6 l-20 28 -26 -28 c-31 -34 -41 -34 -72 0
-26 28 -30 27 -48 -9 -15 -31 -49 -34 -74 -8 -22 24 -42 19 -42 -9 0 -38 -55
-56 -80 -26 -16 19 -30 10 -30 -19 0 -12 -5 -27 -12 -34 -15 -15 -50 -16 -65
-1 -16 16 -35 1 -28 -23 12 -36 -51 -79 -70 -48 -12 19 -33 -8 -27 -35 6 -34
-14 -55 -54 -55 -38 0 -38 0 -22 -34 9 -22 8 -29 -8 -47 -12 -13 -27 -19 -41
-16 -27 5 -40 -10 -24 -26 6 -6 11 -24 11 -39 0 -27 -10 -37 -44 -42 -27 -4
-29 -15 -5 -20 13 -3 61 -10 107 -15 97 -12 136 -30 162 -74 33 -54 19 -125
-32 -161 l-22 -16 22 -23 c31 -33 31 -111 -1 -158 -30 -45 -68 -62 -149 -67
-63 -4 -68 -6 -68 -28 0 -12 -5 -26 -10 -29 -19 -12 -10 -35 14 -35 36 0 49
-23 41 -70 -7 -39 -6 -41 17 -35 33 8 63 -25 54 -60 -9 -34 0 -48 23 -36 26
15 61 -13 61 -48 0 -35 8 -43 32 -30 27 14 68 -13 68 -46 0 -26 15 -41 25 -25
3 5 19 10 35 10 24 0 30 6 40 36 7 19 10 37 8 38 -1 2 -23 16 -48 31 -70 44
-133 100 -180 160 -24 31 -41 57 -39 59 7 7 351 27 357 22 3 -4 -32 -132 -77
-287 -46 -154 -81 -283 -78 -285 2 -2 89 126 193 286 l189 290 82 0 c122 0
437 -21 446 -30 4 -4 -10 -29 -31 -57 -85 -107 -207 -190 -337 -229 -64 -19
-249 -26 -316 -11 -34 7 -38 5 -57 -25 -18 -29 -19 -35 -6 -49 7 -8 14 -23 14
-32 0 -21 23 -22 40 -2 20 24 80 16 80 -10 0 -26 21 -27 45 -1 30 33 48 33 74
-1 23 -28 27 -27 45 9 15 31 61 36 75 9 13 -23 41 -18 41 8 0 9 5 22 12 29 15
15 54 16 63 2 12 -19 35 -10 35 13 0 13 5 28 12 35 15 15 50 16 65 1 15 -15
36 -1 28 18 -3 9 2 27 11 40 13 21 21 24 48 19 38 -7 49 0 36 24 -15 28 16 63
52 58 35 -5 43 4 28 32 -17 32 11 70 50 70 29 0 40 13 20 25 -18 11 -11 64 10
75 11 6 25 8 30 5 5 -3 11 -1 14 4 3 5 -31 14 -77 20 -45 7 -117 17 -159 23
-43 5 -78 14 -78 18 0 4 4 31 10 60 9 47 20 63 97 147 49 52 96 106 106 119
l19 24 -134 0 -134 0 -29 -177 -30 -178 -82 -3 c-46 -2 -83 1 -83 5 0 4 13 83
29 175 15 92 26 170 23 173 -3 3 -25 5 -50 5 l-44 0 6 33 c4 17 9 49 13 70 l6
37 278 0 c230 0 279 2 279 14 0 7 7 19 15 26 19 16 10 30 -19 30 -12 0 -27 5
-34 12 -15 15 -16 50 -1 65 15 15 1 36 -21 30 -34 -9 -61 20 -58 61 3 36 2 37
-28 34 -37 -4 -58 18 -52 53 6 31 -5 40 -32 25 -31 -17 -74 13 -67 46 5 28 -9
42 -26 25 -6 -6 -23 -11 -38 -11 -22 0 -28 -6 -33 -31 -3 -17 -6 -35 -6 -39 0
-4 26 -23 58 -43 57 -35 192 -167 192 -188 0 -5 -6 -12 -12 -14 -13 -4 -321
-25 -324 -22 -1 1 31 128 72 281 41 153 72 281 70 283 -2 3 -40 -50 -83 -116z
m-174 -563 c-16 -79 -31 -153 -34 -165 -5 -21 -2 -23 41 -23 34 0 45 -3 41
-13 -7 -18 -239 -348 -243 -345 -1 2 11 66 26 143 39 187 40 175 -21 175 -28
0 -49 4 -47 8 3 7 262 362 264 362 1 0 -12 -64 -27 -142z m-309 35 c-1 -5 -13
-82 -29 -173 -16 -91 -28 -166 -27 -167 1 -1 38 -3 82 -4 43 -1 82 -3 85 -5 6
-3 -2 -63 -16 -121 -5 -23 -7 -23 -175 -23 -148 0 -170 2 -170 16 0 18 69 453
75 472 5 13 175 18 175 5z"/>
<path d="M605 1158 c-3 -13 -18 -106 -35 -208 -17 -102 -32 -195 -35 -207 l-5
-23 160 0 c120 0 162 3 164 13 3 6 7 31 10 55 l6 42 -85 0 c-70 0 -85 3 -85
15 0 9 11 81 25 161 14 80 25 152 25 160 0 11 -16 14 -70 14 -64 0 -70 -2 -75
-22z"/>
<path d="M83 1174 c45 -32 77 -63 77 -73 0 -16 -44 -294 -56 -353 l-6 -28 159
0 c175 0 194 5 230 59 37 54 23 147 -24 165 -14 6 -12 10 14 26 40 24 53 48
53 97 0 45 -20 77 -59 98 -25 12 -381 65 -442 65 -18 0 -5 -13 54 -56z m295
-103 c8 -4 12 -19 10 -32 -3 -21 -9 -24 -50 -27 -42 -3 -48 -1 -48 17 0 38 11
51 44 51 17 0 37 -4 44 -9z m-10 -200 c5 -32 -21 -51 -70 -51 -34 0 -38 3 -38
24 0 49 9 57 59 54 40 -3 46 -6 49 -27z"/>
<path d="M317 1063 c-4 -3 -7 -15 -7 -25 0 -24 58 -26 67 -2 9 24 -41 47 -60
27z"/>
<path d="M278 865 c-5 -25 -4 -26 36 -23 33 2 41 7 41 23 0 16 -8 21 -36 23
-32 3 -37 0 -41 -23z"/>
<path d="M1126 1149 c-14 -71 -10 -79 39 -79 29 0 45 -4 45 -12 0 -7 -11 -78
-25 -158 -14 -80 -25 -153 -25 -162 0 -15 10 -18 68 -18 l69 0 12 83 c7 45 19
124 28 175 l16 92 48 0 c26 0 50 3 52 8 3 4 8 28 11 55 l7 47 -169 0 -169 0
-7 -31z"/>
<path d="M1495 1134 c-3 -25 -5 -47 -3 -49 2 -2 41 -5 86 -6 45 -1 82 -4 82
-6 0 -2 -51 -61 -112 -129 -114 -126 -125 -144 -127 -200 l-1 -30 253 -32
c138 -18 257 -32 262 -32 6 1 -65 39 -157 86 -93 46 -168 86 -168 89 0 2 53
63 119 134 112 123 131 152 131 207 0 11 -34 14 -179 14 l-179 0 -7 -46z"/>
<path d="M1676 881 l-49 -49 60 -31 c59 -29 93 -32 52 -3 -27 19 -22 63 9 77
27 12 28 31 3 45 -26 13 -21 16 -75 -39z"/>
<path d="M1387 563 c-11 -11 -8 -48 5 -61 18 -18 46 -14 58 9 9 16 8 25 -6 40
-17 19 -45 25 -57 12z m36 -34 c4 -16 3 -18 -9 -8 -7 6 -11 15 -8 20 8 13 11
11 17 -12z"/>
<path d="M1324 484 c5 -12 2 -15 -10 -10 -28 11 -34 -4 -17 -39 18 -37 39 -48
31 -17 -4 15 -1 18 18 14 28 -5 29 -1 9 38 -16 31 -42 42 -31 14z"/>
<path d="M1224 409 c3 -17 6 -35 6 -40 0 -5 7 -9 15 -9 18 0 18 7 4 49 -14 41
-33 41 -25 0z"/>
<path d="M1126 394 c-20 -19 -20 -35 -2 -60 12 -15 19 -17 32 -8 27 16 31 37
5 29 -15 -5 -21 -2 -21 9 0 10 9 16 21 16 18 0 19 2 9 15 -16 19 -25 19 -44
-1z"/>
<path d="M892 348 c-11 -41 -4 -57 15 -33 12 17 13 17 13 2 0 -9 7 -17 16 -17
10 0 14 6 11 14 -3 7 -1 18 5 24 17 17 1 42 -26 42 -20 0 -27 -7 -34 -32z"/>
<path d="M1011 345 c-14 -39 -8 -56 11 -37 8 8 15 8 24 1 17 -14 25 3 15 37
-11 42 -34 41 -50 -1z"/>
</g>
</svg>
